<?xml version="1.0" standalone="no"?>
<!DOCTYPE svg PUBLIC "-//W3C//DTD SVG 20010904//EN"
 "http://www.w3.org/TR/2001/REC-SVG-20010904/DTD/svg10.dtd">
<svg version="1.0" xmlns="http://www.w3.org/2000/svg"
 width="900.000000pt" height="900.000000pt" viewBox="0 0 900.000000 900.000000"
 preserveAspectRatio="xMidYMid meet">

<g transform="translate(0.000000,900.000000) scale(0.100000,-0.100000)"
fill="#478bf9" stroke="none">
<path d="M4096 8122 c-22 -19 -471 -461 -997 -983 l-957 -949 -788 -2 -789 -3
-3 -2247 -2 -2248 2410 0 c2635 0 2470 -4 2629 56 199 75 375 240 465 436 37
79 52 129 90 308 40 189 403 1859 421 1938 l17 72 518 0 c311 0 550 4 597 11
336 45 615 297 704 634 29 111 29 288 0 400 -77 298 -312 533 -616 617 l-80
23 -1569 3 c-864 1 -1571 4 -1572 5 -2 2 8 47 22 102 25 98 26 100 87 155 161
145 291 393 349 663 17 80 22 137 22 262 1 148 -1 166 -26 240 -89 262 -322
463 -603 520 -44 8 -127 17 -184 19 l-103 2 -42 -34z m327 -584 c58 -29 77
-69 77 -159 0 -157 -54 -343 -131 -455 -60 -86 -96 -121 -171 -165 -63 -37
-68 -43 -83 -92 -16 -51 -156 -583 -233 -884 l-39 -153 1911 -2 1911 -3 45
-23 c85 -43 130 -98 156 -189 40 -146 -42 -294 -189 -338 -43 -13 -165 -15
-796 -15 l-746 0 -23 -98 c-20 -85 -107 -496 -388 -1822 -41 -195 -91 -431
-111 -525 -48 -229 -74 -278 -178 -333 l-50 -27 -1427 -3 -1428 -2 0 1772 0
1773 902 887 c994 979 903 900 991 856z m-2453 -3598 l0 -1690 -425 0 -425 0
0 1683 c0 926 3 1687 7 1690 3 4 195 7 425 7 l418 0 0 -1690z"/>
</g>
</svg>
