<svg xmlns="http://www.w3.org/2000/svg" xmlns:xlink="http://www.w3.org/1999/xlink"><defs>
<clipPath id="clip0_1723_13">
<rect width="28" height="28" fill="white"/>
</clipPath>
</defs><symbol id="background-social" viewBox="0 0 32 32"><g fill="none">
<g id="BG Vector">
<g id="BG">
<path id="Union" fill-rule="evenodd" clip-rule="evenodd" d="M0 16C0 24.8202 7.17648 32 16 32C24.8202 32 32 24.8202 32 16C32 7.17982 24.8202 0 16 0C7.17984 0 0 7.17982 0 16ZM5.94191 4.96936C8.59784 2.54552 12.1292 1.06554 16 1.06554C19.8696 1.06554 23.4 2.54462 26.0557 4.96715L24.8681 6.1547C22.5199 4.03823 19.4105 2.75 16 2.75C12.5883 2.75 9.47794 4.03912 7.12944 6.15689L5.94191 4.96936ZM4.96751 5.94395C2.54476 8.59964 1.06554 12.1302 1.06554 16C1.06554 19.8694 2.54451 23.3997 4.96688 26.0553L6.15441 24.8678C4.03812 22.5196 2.75 19.4104 2.75 16C2.75 12.5893 4.03837 9.47974 6.15505 7.13149L4.96751 5.94395ZM5.94122 27.03C8.59723 29.4542 12.1289 30.9344 16 30.9344C19.8692 30.9344 23.3992 29.4557 26.0548 27.0337L24.8672 25.8461C22.5191 27.9621 19.4101 29.25 16 29.25C12.5879 29.25 9.47731 27.9606 7.12874 25.8425L5.94122 27.03ZM30.9345 16C30.9345 19.8714 29.454 23.4033 27.0295 26.0593L25.842 24.8718C27.9604 22.5232 29.25 19.4123 29.25 16C29.25 12.5881 27.9607 9.47761 25.8428 7.12907L27.0303 5.94154C29.4543 8.5975 30.9345 12.129 30.9345 16Z" fill="#478BF9"/>
</g>
</g>
</g></symbol><symbol id="facebook" viewBox="0 0 8 14"><g fill="none">
<path d="M6.07324 2.54685H7.32657V0.426849C6.71974 0.363747 6.11001 0.332593 5.4999 0.333516C3.68657 0.333516 2.44657 1.44018 2.44657 3.46685V5.21352H0.399902V7.58685H2.44657V13.6668H4.8999V7.58685H6.9399L7.24657 5.21352H4.8999V3.70018C4.8999 3.00018 5.08657 2.54685 6.07324 2.54685Z" fill="#110A1D"/>
</g></symbol><symbol id="icon-closed" viewBox="0 0 28 28"><g fill="none">
<path d="M4.66667 21H23.3333C23.975 21 24.5 20.475 24.5 19.8333C24.5 19.1917 23.975 18.6667 23.3333 18.6667H4.66667C4.025 18.6667 3.5 19.1917 3.5 19.8333C3.5 20.475 4.025 21 4.66667 21ZM4.66667 15.1667H23.3333C23.975 15.1667 24.5 14.6417 24.5 14C24.5 13.3583 23.975 12.8333 23.3333 12.8333H4.66667C4.025 12.8333 3.5 13.3583 3.5 14C3.5 14.6417 4.025 15.1667 4.66667 15.1667ZM3.5 8.16667C3.5 8.80833 4.025 9.33333 4.66667 9.33333H23.3333C23.975 9.33333 24.5 8.80833 24.5 8.16667C24.5 7.525 23.975 7 23.3333 7H4.66667C4.025 7 3.5 7.525 3.5 8.16667Z" fill="white"/>
</g></symbol><symbol id="icon-language" viewBox="0 0 16 16"><g fill="none">
<path d="M14.1692 3.71888C12.7989 1.84023 11.0012 0.775068 8.6355 0.5C9.74223 1.7817 10.5035 3.16875 10.9895 4.71966C12.0962 4.49141 13.1444 4.19294 14.1692 3.71888Z" fill="#9DADF2"/>
<path d="M4.25006 5.52288C3.83001 5.41303 3.42197 5.30631 3.01989 5.18202C2.66058 5.06606 2.30606 4.93336 1.95173 4.80073C1.7517 4.72586 1.55173 4.65102 1.35101 4.57922C0.162292 6.66856 0.273551 9.63579 1.34515 11.3857C1.94399 11.1975 2.53794 11.0093 3.13731 10.8194L3.1384 10.8191C3.67559 10.6489 4.21745 10.4772 4.77076 10.303C4.45455 8.78132 4.4604 7.21285 4.77661 5.66193C4.59874 5.61407 4.42337 5.5682 4.25006 5.52288Z" fill="#9DADF2"/>
<path d="M12.9458 5.15847C12.3749 5.33989 11.8035 5.52147 11.2297 5.70289C11.5459 7.23625 11.5342 8.79301 11.2297 10.2971C12.3891 10.6658 13.5193 11.0228 14.6612 11.3798C15.7855 9.45435 15.7737 6.52809 14.6612 4.61432C14.0874 4.7957 13.5166 4.97709 12.9458 5.15847Z" fill="#9DADF2"/>
<path d="M5.7194 10.2269C5.39148 8.74034 5.40319 7.28307 5.70183 5.82579C5.94061 5.83983 6.17518 5.8565 6.40679 5.87296C6.9476 5.91139 7.47255 5.94869 7.99728 5.94869C8.52199 5.94869 9.0467 5.91141 9.58748 5.87298C9.81907 5.85652 10.054 5.83983 10.2927 5.82579C10.6148 7.25966 10.6031 8.72864 10.2869 10.221C8.75267 10.022 7.2536 10.0103 5.7194 10.2269Z" fill="#9DADF2"/>
<path d="M14.1693 12.2753C12.8107 14.1539 11.0072 15.2132 8.64145 15.5C9.73062 14.2242 10.5094 12.843 10.9837 11.2862C12.0846 11.4969 13.1269 11.8129 14.1693 12.2753Z" fill="#9DADF2"/>
<path d="M7.35894 0.5C4.99322 0.780921 3.18965 1.84608 1.78428 3.78326C2.88515 4.12271 3.92162 4.44459 4.99322 4.77819C5.49096 3.15704 6.26391 1.7817 7.35894 0.5Z" fill="#9DADF2"/>
<path d="M7.35894 15.5C4.99907 15.2191 3.20136 14.1598 1.78428 12.2167C2.13525 12.1085 2.47968 12.0021 2.82079 11.8967L2.82228 11.8962C3.55057 11.6711 4.26377 11.4508 4.99322 11.2277C5.49096 12.8312 6.2522 14.2183 7.35894 15.5Z" fill="#9DADF2"/>
<path d="M10.0408 4.86013C9.60158 3.48479 8.92817 2.28503 7.99711 1.19646C7.06019 2.30258 6.38093 3.4965 5.95931 4.86013C7.33541 5.04156 8.67052 5.04741 10.0408 4.86013Z" fill="#9DADF2"/>
<path d="M8.00297 14.8035C7.07191 13.7208 6.39849 12.521 5.95931 11.1457C7.3237 10.9526 8.65881 10.9584 10.0466 11.1399C9.60744 12.5093 8.93403 13.7033 8.00297 14.8035Z" fill="#9DADF2"/>
</g></symbol><symbol id="icon-opened" viewBox="0 0 28 28"><g fill="none">
<g clip-path="url(#clip0_1723_13)">
<path d="M22.1666 7.47825L20.5216 5.83325L13.9999 12.3549L7.47825 5.83325L5.83325 7.47825L12.3549 13.9999L5.83325 20.5216L7.47825 22.1666L13.9999 15.6449L20.5216 22.1666L22.1666 20.5216L15.6449 13.9999L22.1666 7.47825Z" fill="white"/>
</g>

</g></symbol><symbol id="instagram" viewBox="0 0 14 14"><g fill="none">
<path d="M7 0.5C8.76605 0.5 8.9864 0.5065 9.6793 0.539C10.3715 0.5715 10.8428 0.68005 11.2575 0.84125C11.6865 1.00635 12.0479 1.22995 12.4093 1.5907C12.7398 1.91563 12.9956 2.30868 13.1587 2.7425C13.3193 3.15655 13.4285 3.62845 13.461 4.3207C13.4915 5.0136 13.5 5.23395 13.5 7C13.5 8.76605 13.4935 8.9864 13.461 9.6793C13.4285 10.3715 13.3193 10.8428 13.1587 11.2575C12.996 11.6916 12.7402 12.0847 12.4093 12.4093C12.0843 12.7397 11.6912 12.9954 11.2575 13.1587C10.8434 13.3193 10.3715 13.4285 9.6793 13.461C8.9864 13.4915 8.76605 13.5 7 13.5C5.23395 13.5 5.0136 13.4935 4.3207 13.461C3.62845 13.4285 3.1572 13.3193 2.7425 13.1587C2.30851 12.9959 1.91539 12.7401 1.5907 12.4093C1.26011 12.0844 1.00436 11.6914 0.84125 11.2575C0.68005 10.8434 0.5715 10.3715 0.539 9.6793C0.50845 8.9864 0.5 8.76605 0.5 7C0.5 5.23395 0.5065 5.0136 0.539 4.3207C0.5715 3.6278 0.68005 3.1572 0.84125 2.7425C1.0039 2.30842 1.25972 1.91526 1.5907 1.5907C1.91549 1.26 2.30858 1.00422 2.7425 0.84125C3.1572 0.68005 3.6278 0.5715 4.3207 0.539C5.0136 0.50845 5.23395 0.5 7 0.5ZM7 3.75C6.13805 3.75 5.3114 4.09241 4.7019 4.7019C4.09241 5.3114 3.75 6.13805 3.75 7C3.75 7.86195 4.09241 8.6886 4.7019 9.2981C5.3114 9.90759 6.13805 10.25 7 10.25C7.86195 10.25 8.6886 9.90759 9.2981 9.2981C9.90759 8.6886 10.25 7.86195 10.25 7C10.25 6.13805 9.90759 5.3114 9.2981 4.7019C8.6886 4.09241 7.86195 3.75 7 3.75ZM11.225 3.5875C11.225 3.37201 11.1394 3.16535 10.987 3.01298C10.8347 2.8606 10.628 2.775 10.4125 2.775C10.197 2.775 9.99035 2.8606 9.83797 3.01298C9.6856 3.16535 9.6 3.37201 9.6 3.5875C9.6 3.80299 9.6856 4.00965 9.83797 4.16202C9.99035 4.3144 10.197 4.4 10.4125 4.4C10.628 4.4 10.8347 4.3144 10.987 4.16202C11.1394 4.00965 11.225 3.80299 11.225 3.5875ZM7 5.05C7.51717 5.05 8.01316 5.25545 8.37886 5.62114C8.74455 5.98684 8.95 6.48283 8.95 7C8.95 7.51717 8.74455 8.01316 8.37886 8.37886C8.01316 8.74455 7.51717 8.95 7 8.95C6.48283 8.95 5.98684 8.74455 5.62114 8.37886C5.25545 8.01316 5.05 7.51717 5.05 7C5.05 6.48283 5.25545 5.98684 5.62114 5.62114C5.98684 5.25545 6.48283 5.05 7 5.05Z" fill="#110A1D"/>
</g></symbol><symbol id="linkedin" viewBox="0 0 14 14"><g fill="none">
<path d="M0.875 1.75241C0.875 1.26777 1.27772 0.875 1.77461 0.875H12.2254C12.7223 0.875 13.125 1.26777 13.125 1.75241V12.2476C13.125 12.7322 12.7223 13.125 12.2254 13.125H1.77461C1.27772 13.125 0.875 12.7322 0.875 12.2476V1.75241ZM4.65948 11.1298V5.59814H2.82122V11.1298H4.65948ZM3.74073 4.84247C4.38156 4.84247 4.78045 4.41831 4.78045 3.88697C4.76897 3.34414 4.38233 2.93147 3.75298 2.93147C3.12364 2.93147 2.7125 3.34491 2.7125 3.88697C2.7125 4.41831 3.11139 4.84247 3.72848 4.84247H3.74073ZM7.49842 11.1298V8.04048C7.49842 7.87511 7.51067 7.70973 7.55967 7.59183C7.69212 7.26184 7.99455 6.91961 8.50292 6.91961C9.16825 6.91961 9.43392 7.42645 9.43392 8.17064V11.1298H11.2722V7.95703C11.2722 6.25734 10.3657 5.46722 9.156 5.46722C8.18059 5.46722 7.74342 6.00316 7.49842 6.38061V6.39975H7.48617C7.49024 6.39336 7.49432 6.38698 7.49842 6.38061V5.59814H5.66092C5.68389 6.11723 5.66092 11.1298 5.66092 11.1298H7.49842Z" fill="#110A1D"/>
</g></symbol><symbol id="telegram" viewBox="0 0 13 11"><g fill="none">
<path d="M11.6437 0.132122C11.6437 0.132122 12.7768 -0.309753 12.682 0.763289C12.6508 1.20516 12.3676 2.75187 12.1471 4.42458L11.3917 9.38C11.3917 9.38 11.3287 10.106 10.762 10.2322C10.1956 10.3582 9.34567 9.79037 9.18817 9.66408C9.06217 9.56929 6.82742 8.14887 6.0405 7.45471C5.82 7.26512 5.568 6.88654 6.072 6.44466L9.37688 3.28825C9.75459 2.90966 10.1323 2.02591 8.55846 3.09896L4.15138 6.09729C4.15138 6.09729 3.64767 6.41316 2.70354 6.12908L0.657211 5.49762C0.657211 5.49762 -0.098206 5.02425 1.19242 4.55087C4.34038 3.06746 8.21225 1.55254 11.6431 0.132122H11.6437Z" fill="#110A1D"/>
</g></symbol><symbol id="tiktok" viewBox="0 0 12 14"><g fill="none">
<path fill-rule="evenodd" clip-rule="evenodd" d="M7.0125 0.924805C7.38529 0.924805 7.6875 1.22701 7.6875 1.5998C7.6875 2.31589 7.97197 3.00265 8.47831 3.50899C8.98466 4.01534 9.67142 4.29981 10.3875 4.29981C10.7603 4.29981 11.0625 4.60201 11.0625 4.9748C11.0625 5.3476 10.7603 5.64981 10.3875 5.64981C9.38874 5.64981 8.42801 5.28088 7.6875 4.6185V9.69981C7.6875 10.3673 7.48956 11.0198 7.11871 11.5749C6.74786 12.1299 6.22076 12.5625 5.60406 12.8179C4.98736 13.0733 4.30876 13.1402 3.65407 13.01C2.99939 12.8797 2.39802 12.5583 1.92602 12.0863C1.45401 11.6143 1.13258 11.0129 1.00235 10.3582C0.872126 9.70355 0.938962 9.02495 1.19441 8.40825C1.44985 7.79155 1.88244 7.26445 2.43745 6.8936C2.99247 6.52275 3.64499 6.32481 4.3125 6.32481C4.68529 6.32481 4.9875 6.62701 4.9875 6.99981C4.9875 7.3726 4.68529 7.67481 4.3125 7.67481C3.91199 7.67481 3.52048 7.79357 3.18747 8.01608C2.85446 8.23859 2.59491 8.55485 2.44165 8.92487C2.28838 9.29489 2.24828 9.70205 2.32641 10.0949C2.40455 10.4877 2.59741 10.8485 2.88061 11.1317C3.16381 11.4149 3.52463 11.6078 3.91744 11.6859C4.31026 11.764 4.71742 11.7239 5.08744 11.5707C5.45746 11.4174 5.77372 11.1578 5.99623 10.8248C6.21874 10.4918 6.3375 10.1003 6.3375 9.69981V1.5998C6.3375 1.22701 6.63971 0.924805 7.0125 0.924805Z" fill="#110A1D"/>
</g></symbol><symbol id="tomain" viewBox="0 0 900.000000 900.000000" preserveAspectRatio="xMidYMid meet">

<g transform="translate(0.000000,900.000000) scale(0.100000,-0.100000)" fill="#478bf9" stroke="none">
<path d="M4096 8122 c-22 -19 -471 -461 -997 -983 l-957 -949 -788 -2 -789 -3
-3 -2247 -2 -2248 2410 0 c2635 0 2470 -4 2629 56 199 75 375 240 465 436 37
79 52 129 90 308 40 189 403 1859 421 1938 l17 72 518 0 c311 0 550 4 597 11
336 45 615 297 704 634 29 111 29 288 0 400 -77 298 -312 533 -616 617 l-80
23 -1569 3 c-864 1 -1571 4 -1572 5 -2 2 8 47 22 102 25 98 26 100 87 155 161
145 291 393 349 663 17 80 22 137 22 262 1 148 -1 166 -26 240 -89 262 -322
463 -603 520 -44 8 -127 17 -184 19 l-103 2 -42 -34z m327 -584 c58 -29 77
-69 77 -159 0 -157 -54 -343 -131 -455 -60 -86 -96 -121 -171 -165 -63 -37
-68 -43 -83 -92 -16 -51 -156 -583 -233 -884 l-39 -153 1911 -2 1911 -3 45
-23 c85 -43 130 -98 156 -189 40 -146 -42 -294 -189 -338 -43 -13 -165 -15
-796 -15 l-746 0 -23 -98 c-20 -85 -107 -496 -388 -1822 -41 -195 -91 -431
-111 -525 -48 -229 -74 -278 -178 -333 l-50 -27 -1427 -3 -1428 -2 0 1772 0
1773 902 887 c994 979 903 900 991 856z m-2453 -3598 l0 -1690 -425 0 -425 0
0 1683 c0 926 3 1687 7 1690 3 4 195 7 425 7 l418 0 0 -1690z"/>
</g>
</symbol><symbol id="twitter" viewBox="0 0 14 12"><g fill="none">
<path d="M12.3116 3.5386V3.91283C12.3116 7.68139 9.55848 12.0001 4.52064 12.0001C3.03341 12.0034 1.57777 11.5546 0.333252 10.709C0.549388 10.7394 0.767405 10.7532 0.985504 10.7501C2.2183 10.7536 3.41643 10.3266 4.38731 9.53759C3.81458 9.52883 3.25908 9.33282 2.79976 8.97741C2.34044 8.62201 2.00067 8.12531 1.82875 7.55789C1.99935 7.59545 2.17328 7.61426 2.34767 7.61402C2.59118 7.61408 2.8336 7.58009 3.06839 7.51298C2.44806 7.38456 1.88998 7.03625 1.48965 6.52766C1.08932 6.01907 0.871614 5.38181 0.873793 4.72493V4.6875C1.25332 4.90767 1.67883 5.02842 2.11343 5.03928C1.53491 4.64393 1.12359 4.03408 0.963511 3.33434C0.803435 2.63461 0.906688 1.8978 1.25217 1.27447C1.94055 2.15374 2.79941 2.87271 3.77291 3.38465C4.74641 3.89658 5.81275 4.19003 6.90262 4.2459C6.84867 4.0335 6.82321 3.81437 6.82695 3.59473C6.80665 3.01426 6.95913 2.4414 7.2636 1.95414C7.56807 1.46689 8.00975 1.08893 8.52849 0.871728C9.04724 0.654523 9.61783 0.608629 10.1626 0.740295C10.7074 0.871961 11.1998 1.17479 11.5729 1.60754C12.1861 1.47902 12.7744 1.24502 13.3134 0.915207C13.109 1.5856 12.6742 2.15442 12.0918 2.51319C12.6358 2.43535 13.1662 2.27654 13.6666 2.04166C13.3039 2.62009 12.8451 3.12696 12.3116 3.5386Z" fill="#110A1D"/>
</g></symbol><symbol id="vk" viewBox="0 0 14 9"><g fill="none">
<path fill-rule="evenodd" clip-rule="evenodd" d="M0.311366 0.540354C0.371931 0.452124 0.468821 0.399902 0.571954 0.399902H2.78376C2.90777 0.399902 3.02076 0.475186 3.07424 0.593447C3.20876 0.89094 3.3395 1.19186 3.46885 1.48956C3.76915 2.18075 4.0619 2.85456 4.37691 3.42766C4.60015 3.8338 4.82287 4.16627 5.05001 4.40235C5.14614 4.50227 5.23943 4.58119 5.33039 4.64085V1.82015L4.66793 0.954135C4.58994 0.852168 4.57431 0.711904 4.62776 0.593574C4.68121 0.475244 4.79423 0.399902 4.91829 0.399902H7.99293C8.17074 0.399902 8.31488 0.552254 8.31488 0.740189V3.9274C8.68263 3.54399 8.9704 3.10703 9.23319 2.63856C9.38446 2.3689 9.52466 2.09411 9.66843 1.81235C9.70318 1.74424 9.73814 1.67572 9.77351 1.60677C9.95336 1.25619 10.142 0.898417 10.3578 0.552775C10.4173 0.457333 10.5183 0.399902 10.6265 0.399902H12.7449C12.8448 0.399902 12.9391 0.448911 13 0.532562C13.061 0.616213 13.0817 0.725028 13.0562 0.827107C12.6506 2.44996 11.8611 3.58348 11.1084 4.66435C11.0786 4.70704 11.049 4.74966 11.0194 4.79221C12.0413 5.75879 12.8603 6.94273 13.4219 8.26775C13.4665 8.37303 13.4576 8.49504 13.3983 8.59187C13.3389 8.68869 13.2372 8.74714 13.128 8.74714H10.7971C10.7199 8.74714 10.6453 8.71782 10.5868 8.66452C10.3405 8.43995 10.1286 8.19418 9.93331 7.95925C9.89333 7.91117 9.85426 7.86381 9.81578 7.81716C9.6622 7.63102 9.51793 7.45615 9.36262 7.2915C9.06504 6.97604 8.74511 6.71853 8.31488 6.5742V8.40686C8.31488 8.57823 8.1943 8.72287 8.03345 8.74444C5.41928 9.09501 3.66121 7.73669 2.47696 5.99732C1.33877 4.32559 0.704335 2.2678 0.302569 0.964676C0.290123 0.924305 0.277899 0.884657 0.265891 0.845768C0.233892 0.742141 0.2508 0.628584 0.311366 0.540354ZM1.01594 1.08048C1.42013 2.37792 2.01304 4.15076 2.9996 5.59979C4.04888 7.14093 5.51702 8.28159 7.67098 8.10006V6.14735C7.67098 6.04814 7.71194 5.95388 7.78313 5.88923C7.85433 5.82459 7.94867 5.796 8.04145 5.81095C8.84935 5.94114 9.38121 6.34731 9.8186 6.81097C9.99065 6.99336 10.1527 7.18987 10.3075 7.37763C10.3444 7.42236 10.3809 7.46658 10.417 7.51001C10.5818 7.70825 10.7436 7.89574 10.9196 8.06657H12.6159C12.0631 6.93407 11.3028 5.92685 10.3774 5.10451C10.2481 4.98959 10.2249 4.78857 10.3241 4.64409C10.4125 4.51555 10.5007 4.38858 10.5885 4.26236C11.2699 3.28221 11.9196 2.34769 12.314 1.08048H10.8021C10.6395 1.35381 10.4898 1.63825 10.3396 1.93118C10.3058 1.99698 10.2719 2.06336 10.2379 2.13016C10.0936 2.41292 9.94567 2.7029 9.78705 2.98566C9.39216 3.68961 8.91397 4.38129 8.17971 4.93406C8.08154 5.00796 7.95254 5.01773 7.84542 4.95936C7.73829 4.901 7.67098 4.78428 7.67098 4.65689V1.08048H5.59261L5.9027 1.48585C5.94902 1.54641 5.97429 1.62193 5.97429 1.6998V5.11968C5.97429 5.21677 5.93506 5.30924 5.86645 5.37381C5.79785 5.43838 5.70642 5.4689 5.61518 5.4577C5.22148 5.40934 4.88503 5.18537 4.59854 4.88762C4.31247 4.59029 4.05609 4.1988 3.82014 3.76954C3.48888 3.16686 3.17473 2.44394 2.8684 1.73901C2.7716 1.51625 2.67558 1.29528 2.58004 1.08048H1.01594Z" fill="#110A1D"/>
<path d="M2.9996 5.59979C2.01304 4.15076 1.42013 2.37792 1.01594 1.08048H2.58004C2.67558 1.29528 2.7716 1.51625 2.8684 1.73901C3.17473 2.44394 3.48888 3.16686 3.82014 3.76954C4.05609 4.1988 4.31247 4.59029 4.59854 4.88762C4.88503 5.18537 5.22148 5.40934 5.61518 5.4577C5.70642 5.4689 5.79785 5.43838 5.86645 5.37381C5.93506 5.30924 5.97429 5.21677 5.97429 5.11968V1.6998C5.97429 1.62193 5.94902 1.54641 5.9027 1.48585L5.59261 1.08048H7.67098V4.65689C7.67098 4.78428 7.73829 4.901 7.84542 4.95936C7.95254 5.01773 8.08154 5.00796 8.17971 4.93406C8.91397 4.38129 9.39216 3.68961 9.78705 2.98566C9.94567 2.7029 10.0936 2.41292 10.2379 2.13016C10.2719 2.06336 10.3058 1.99698 10.3396 1.93118C10.4898 1.63825 10.6395 1.35381 10.8021 1.08048H12.314C11.9196 2.34769 11.2699 3.28221 10.5885 4.26236C10.5007 4.38858 10.4125 4.51555 10.3241 4.64409C10.2249 4.78857 10.2481 4.98959 10.3774 5.10451C11.3028 5.92685 12.0631 6.93407 12.6159 8.06657H10.9196C10.7436 7.89574 10.5818 7.70825 10.417 7.51001C10.3809 7.46658 10.3444 7.42236 10.3075 7.37763C10.1527 7.18987 9.99065 6.99336 9.8186 6.81097C9.38121 6.34731 8.84935 5.94114 8.04145 5.81095C7.94867 5.796 7.85433 5.82459 7.78313 5.88923C7.71194 5.95388 7.67098 6.04814 7.67098 6.14735V8.10006C5.51702 8.28159 4.04888 7.14093 2.9996 5.59979Z" fill="#110A1D"/>
</g></symbol><symbol id="youtube" viewBox="0 0 14 10"><g fill="none">
<path d="M5.66659 6.99992L9.12659 4.99992L5.66659 2.99992V6.99992ZM13.3733 1.77992C13.4599 2.09325 13.5199 2.51325 13.5599 3.04659C13.6066 3.57992 13.6266 4.03992 13.6266 4.43992L13.6666 4.99992C13.6666 6.45992 13.5599 7.53325 13.3733 8.21992C13.2066 8.81992 12.8199 9.20658 12.2199 9.37325C11.9066 9.45992 11.3333 9.51992 10.4533 9.55992C9.58659 9.60659 8.79325 9.62659 8.05992 9.62659L6.99992 9.66659C4.20659 9.66659 2.46659 9.55992 1.77992 9.37325C1.17992 9.20658 0.793252 8.81992 0.626585 8.21992C0.539919 7.90659 0.479919 7.48659 0.439919 6.95325C0.393252 6.41992 0.373252 5.95992 0.373252 5.55992L0.333252 4.99992C0.333252 3.53992 0.439919 2.46659 0.626585 1.77992C0.793252 1.17992 1.17992 0.793252 1.77992 0.626585C2.09325 0.539919 2.66659 0.479919 3.54659 0.439919C4.41325 0.393252 5.20659 0.373252 5.93992 0.373252L6.99992 0.333252C9.79325 0.333252 11.5333 0.439919 12.2199 0.626585C12.8199 0.793252 13.2066 1.17992 13.3733 1.77992Z" fill="#1E1231"/>
</g></symbol></svg>